<?xml version="1.0" standalone="no"?>
<!DOCTYPE svg PUBLIC "-//W3C//DTD SVG 20010904//EN"
 "http://www.w3.org/TR/2001/REC-SVG-20010904/DTD/svg10.dtd">
<svg version="1.0" xmlns="http://www.w3.org/2000/svg"
 width="500.000000pt" height="500.000000pt" viewBox="0 0 500.000000 500.000000"
 preserveAspectRatio="xMidYMid meet">
<metadata>
Created by potrace 1.14, written by Peter Selinger 2001-2017
</metadata>
<g transform="translate(0.000000,500.000000) scale(0.100000,-0.100000)"
fill="#000000" stroke="none">
<path d="M2416 4619 c-17 -5 -39 -7 -50 -5 -12 2 -37 -4 -56 -14 -19 -9 -63
-26 -96 -37 l-62 -21 -32 32 c-23 22 -34 27 -37 17 -18 -47 -86 -73 -198 -75
-74 -2 -150 -32 -188 -74 -16 -18 -56 -22 -93 -8 -17 7 -50 -16 -126 -89 -76
-73 -79 -75 -199 -139 -41 -22 -87 -47 -103 -55 -16 -9 -39 -36 -52 -61 -29
-54 -78 -97 -121 -106 -34 -6 -54 -41 -68 -116 -5 -29 -23 -50 -83 -104 -43
-37 -98 -83 -124 -103 -27 -19 -48 -40 -48 -46 0 -6 -11 -26 -24 -44 -14 -19
-27 -54 -31 -84 -10 -72 -11 -76 -29 -127 -9 -25 -19 -53 -21 -64 -2 -10 -12
-30 -20 -43 -13 -19 -15 -35 -9 -66 4 -23 7 -45 6 -48 0 -3 -4 -28 -8 -55 -3
-27 -12 -56 -19 -64 -7 -8 -15 -24 -16 -34 -5 -23 -45 -54 -78 -61 -33 -6 -36
-11 -21 -42 21 -43 20 -52 -6 -72 -28 -22 -30 -38 -7 -63 21 -24 25 -135 6
-197 -7 -24 -13 -70 -13 -101 0 -44 -4 -61 -20 -75 -11 -10 -20 -24 -20 -30 0
-12 86 -55 109 -55 14 0 14 -1 -5 -38 -11 -24 -13 -36 -4 -52 14 -25 19 -109
11 -175 -6 -46 -4 -52 22 -74 26 -22 28 -27 22 -76 -5 -38 -3 -59 7 -76 8 -13
25 -52 38 -86 20 -50 32 -67 66 -88 38 -24 45 -36 75 -118 24 -67 48 -111 87
-160 51 -64 132 -208 132 -234 0 -6 12 -19 28 -28 15 -9 37 -32 49 -50 13 -19
49 -52 82 -74 33 -23 64 -47 68 -55 18 -30 101 -71 203 -100 46 -13 69 -29
145 -102 50 -48 104 -93 122 -101 18 -7 37 -22 43 -33 6 -11 21 -20 33 -20 12
0 36 -9 54 -19 17 -11 60 -25 95 -32 34 -6 83 -22 108 -34 39 -19 61 -22 165
-21 101 1 122 -2 133 -16 6 -9 35 -24 62 -33 28 -9 63 -27 79 -40 l28 -24 34
25 c43 30 104 37 144 16 46 -24 61 -24 93 3 22 19 41 25 76 25 32 0 52 6 65
19 11 11 44 24 75 31 31 6 58 15 61 20 11 17 109 41 202 49 88 8 93 9 128 45
39 40 85 63 182 90 103 28 146 52 212 118 87 87 90 89 130 123 20 17 56 40 80
50 24 11 65 37 90 57 25 21 52 38 59 38 7 0 19 15 27 33 7 17 26 46 42 63 15
16 44 51 63 77 21 27 48 51 68 57 37 13 37 13 17 44 -13 20 -14 26 -2 37 7 8
22 30 33 49 10 19 25 41 32 48 27 29 51 90 46 117 -3 17 2 37 13 54 10 14 24
37 31 51 14 26 72 205 72 222 0 6 14 38 31 71 29 57 29 61 16 96 -14 33 -13
47 7 152 13 68 21 140 18 175 -11 177 -5 268 21 355 12 40 12 52 0 85 -13 38
-26 78 -53 175 -12 41 -12 50 3 72 15 23 15 26 1 38 -25 21 -54 86 -59 132
-16 166 -67 306 -134 363 -20 17 -70 79 -111 138 -50 71 -85 111 -107 121 -21
10 -41 32 -54 58 -37 72 -98 151 -128 163 -15 7 -46 33 -67 60 -59 73 -78 87
-118 91 -38 3 -146 67 -199 118 -35 33 -157 90 -214 100 -31 5 -51 17 -77 45
-44 49 -84 57 -140 28 -51 -26 -144 -35 -177 -17 -13 7 -49 13 -80 15 -54 1
-66 6 -222 85 l-37 20 -37 -26 c-36 -24 -38 -24 -58 -6 -26 24 -53 30 -89 20z"/>
</g>
</svg>
